<svg width="200" height="200" viewBox="0 0 200 200" fill="none" xmlns="http://www.w3.org/2000/svg">
<g clip-path="url(#clip0_4807_64)">
<path d="M131 4C132.253 4.4125 133.506 4.825 134.797 5.25C159.745 14.0676 179.22 32.5036 191.084 56.0107C201.705 79.0873 204.095 106.816 196 131C195.588 132.253 195.175 133.506 194.75 134.797C185.932 159.745 167.496 179.22 143.989 191.084C120.913 201.705 93.1841 204.095 69 196C67.1205 195.381 67.1205 195.381 65.2031 194.75C40.2554 185.932 20.7801 167.496 8.91553 143.989C-1.70513 120.913 -4.09511 93.1841 4 69C4.4125 67.747 4.825 66.4941 5.25 65.2031C14.0676 40.2554 32.5036 20.7801 56.0107 8.91553C79.0873 -1.70513 106.816 -4.09511 131 4Z" fill="#55BE96"/>
<path d="M129.937 45.375C140.435 54.5914 148.196 65.5235 156 77C156.401 77.5809 156.802 78.1618 157.216 78.7603C158.241 80.2477 159.246 81.7484 160.25 83.25C160.791 84.0596 161.333 84.8691 161.891 85.7031C163.189 88.3904 163.384 90.0508 163 93C160.085 96.5815 157.447 98.7128 153 100C152.01 100 151.02 100 150 100C150.29 101.479 150.582 102.959 150.875 104.438C151.055 105.36 151.236 106.283 151.422 107.234C151.766 108.879 152.14 110.519 152.578 112.141C154.657 119.922 155.736 129.776 152.637 137.316C150.174 141.354 146.879 143.414 143 146C138.661 146.975 134.506 147.117 130.07 147.098C128.137 147.093 128.137 147.093 126.164 147.088C124.818 147.08 123.471 147.071 122.125 147.063C120.755 147.058 119.385 147.053 118.016 147.049C114.677 147.037 111.339 147.021 108 147C106.926 155.311 105.865 163.601 105.246 171.961C105 174 105 174 104 176C102.68 175.67 101.36 175.34 100 175C99.6479 166.89 100.058 159.245 101.375 151.25C101.564 150.071 101.564 150.071 101.757 148.868C102.743 143.257 102.743 143.257 105 141C107.418 140.874 109.72 140.865 112.133 140.945C113.594 140.971 115.055 140.995 116.516 141.02C118.813 141.069 121.11 141.125 123.407 141.192C135.343 141.747 135.343 141.747 146 137C150.151 130.004 148.447 121.155 146.565 113.616C146.195 112.231 145.815 110.849 145.423 109.47C144.413 105.899 143.57 102.718 144 99C147.652 95.2338 152.315 93.2114 157 91C154.256 85.2079 151.167 80.0185 147.437 74.8125C146.911 74.0771 146.384 73.3417 145.842 72.584C134.863 57.4219 121.676 41.3394 102 38C97.9401 37.7343 93.8801 37.7231 89.8125 37.6875C88.7264 37.6585 87.6404 37.6295 86.5215 37.5996C74.8719 37.5087 64.7336 41.4959 56.2812 49.6602C54.7462 51.3793 53.3595 53.1396 52 55C51.5591 55.5827 51.1183 56.1653 50.664 56.7656C43.1069 67.6662 41.2818 81.0596 43 94C44.7888 100.833 47.3704 106.525 53 111C53.7012 111.578 54.4025 112.155 55.125 112.75C59.4153 115.61 64.0324 115.493 69 115C71.5212 114.21 73.6341 113.208 76 112C75.4844 110.866 74.9687 109.731 74.4375 108.563C72.67 103.807 72.6849 99.882 74 95C75.8899 91.0801 76.8896 89.4489 80.9375 87.8125C84 88 84 88 86.875 89.6875C90.0011 94.5606 89.9014 99.3513 89 105C87.4687 107.875 87.4687 107.875 86 110C91.1096 113.406 97.0387 112.516 103 112C107.946 110.79 111.011 108.465 114 104.375C116.634 99.7059 116.482 95.2236 116 90C115.031 90.0825 114.061 90.165 113.062 90.25C107.549 90.2277 102.513 88.1283 98.3164 84.5742C96.2593 82.319 95.082 80.3446 94.375 77.375C95.3027 73.8497 96.9006 72.8192 100 71C104.143 70.1714 106.594 71.1175 110.125 73.1875C113.392 75.3907 115.834 77.6605 118 81C118 81.66 118 82.32 118 83C119.32 82.34 120.64 81.68 122 81C122.706 74.5277 121.491 71.2037 117.633 65.9727C112.749 60.0721 106.343 56.5201 98.7383 55.6094C91.6715 55.321 91.6715 55.321 85.25 57.875C82.9597 59.7946 82.9597 59.7946 82 62C82.5981 62.2681 83.1962 62.5363 83.8125 62.8125C86.071 64.0386 87.4706 64.9354 89 67C89.4334 69.8894 89.4252 71.3509 87.8125 73.8125C85.3101 75.452 83.9396 75.5019 81 75C77.9229 72.7777 77.1094 71.4741 76.25 67.75C76.1675 66.8425 76.085 65.935 76 65C69.5068 65.8448 65.2148 66.5615 61 72C59.4673 75.0654 59.8972 78.2676 59.9375 81.625C59.942 82.3314 59.9465 83.0378 59.9512 83.7656C59.9629 85.5105 59.9809 87.2553 60 89C57.525 89.495 57.525 89.495 55 90C52.1633 84.6813 51.9638 78.5181 53.6523 72.7852C56.3363 66.7837 60.6979 62.7781 66.4375 59.6875C68.7223 59.0745 70.6576 58.8627 73 58.6875C77.4242 58.2335 78.9499 56.2026 82 53C89.4396 49.1474 97.6433 48.6665 105.777 50.6914C115.672 54.3353 122.175 60.261 127.312 69.3125C128.541 74.1161 129.351 79.4542 126.949 83.9805C125.625 85.625 125.625 85.625 123 88C122.34 88 121.68 88 121 88C121.165 88.495 121.33 88.99 121.5 89.5C122.969 96.8429 122.055 102.697 118 109C113.85 113.557 109.347 117.601 102.98 118.185C100.629 118.269 98.29 118.273 95.9375 118.25C95.135 118.258 94.3326 118.265 93.5058 118.273C89.3543 118.26 86.6878 118.01 83 116C79.8754 116.392 77.2244 117.768 74.375 119.063C68.1558 121.543 62.8386 122.249 56.3945 120.152C48.2064 116.498 43.0613 111.06 39.625 102.813C34.8282 89.903 35.5309 74.5449 41 62C47.7629 47.7027 57.4673 38.7694 72 33C92.1742 26.3053 113.779 32.6336 129.937 45.375Z" fill="#F4FAF8"/>
<path d="M81 93C81.99 93.33 82.98 93.66 84 94C84.0545 95.4162 84.093 96.8331 84.125 98.25C84.1482 99.0389 84.1714 99.8278 84.1953 100.641C83.9828 103.207 83.2865 104.792 82 107C81.01 106.67 80.02 106.34 79 106C78.9458 104.396 78.9071 102.792 78.875 101.188C78.8518 100.294 78.8286 99.4009 78.8047 98.4805C79 96 79 96 81 93Z" fill="#60C29D"/>
<path d="M101 77C104.753 76.6509 106.566 76.7299 109.812 78.75C112.057 81.0584 112.409 81.9733 113 85C103.909 83.0303 103.909 83.0303 101 80C101 79.01 101 78.02 101 77Z" fill="#63C39F"/>
</g>
<defs>
<clipPath id="clip0_4807_64">
<rect width="200" height="200" fill="white"/>
</clipPath>
</defs>
</svg>
